<?xml version="1.0" encoding="utf-8"?>
<!-- Generator: Adobe Illustrator 27.5.0, SVG Export Plug-In . SVG Version: 6.00 Build 0)  -->
<svg version="1.1" xmlns="http://www.w3.org/2000/svg" xmlns:xlink="http://www.w3.org/1999/xlink" x="0px" y="0px"
	 viewBox="0 0 500 500" style="enable-background:new 0 0 500 500;" xml:space="preserve">
<g id="BACKGROUND">
	<g>
		<linearGradient id="SVGID_1_" gradientUnits="userSpaceOnUse" x1="79.2468" y1="545.9026" x2="420.7532" y2="-45.6038">
			<stop  offset="0" style="stop-color:#5190C5"/>
			<stop  offset="1" style="stop-color:#72B3E3"/>
		</linearGradient>
		<rect y="0.149" style="fill:url(#SVGID_1_);" width="500" height="500"/>
		<g>
			<path style="opacity:0.61;fill:#72B3E3;" d="M500.066,232.693v-100.81c-18.592,4.914-33.605,18.624-40.314,36.415
				c-5.413-9.733-15.797-16.321-27.724-16.321c-9.157,0-17.402,3.886-23.19,10.094c-8.641-22.06-30.1-37.69-55.223-37.69
				c-31.943,0-57.974,25.258-59.242,56.889c-1.901-0.434-3.876-0.672-5.909-0.672c-9.196,0-17.298,4.681-22.056,11.79
				c-5.142-17.087-20.99-29.538-39.753-29.538c-13.528,0-25.541,6.474-33.121,16.489c-4.824-20.531-23.243-35.82-45.245-35.82
				c-23.33,0-42.643,17.187-45.977,39.59c-4.831-6.543-12.594-10.789-21.352-10.789c-7.353,0-14.007,2.993-18.811,7.826
				c-3.01-15.209-16.42-26.678-32.513-26.678c-5.634,0-10.938,1.41-15.584,3.89c0.187-1.27,0.287-2.568,0.287-3.89
				c0-10.255-5.823-19.144-14.34-23.559v51.929v50.855H500.066z"/>
			<path style="fill:#7AB8E5;" d="M500.066,302.378v-80.203c-5.34-2.42-11.263-3.778-17.508-3.778
				c-10.814,0-20.678,4.048-28.177,10.702c-6.526-25.924-29.986-45.118-57.936-45.118c-13.323,0-25.625,4.365-35.562,11.738
				c0.063-0.944,0.106-1.894,0.106-2.854c0-23.459-19.017-42.476-42.476-42.476c-23.459,0-42.476,19.017-42.476,42.476
				c0,4.642,0.755,9.106,2.132,13.287c-7.26-5.794-16.456-9.266-26.467-9.266c-15.77,0-29.523,8.601-36.85,21.362
				c-5.114-4.711-11.94-7.591-19.44-7.591c-6.835,0-13.108,2.393-18.038,6.381c-7.48-12.057-20.83-20.09-36.061-20.09
				c-20.296,0-37.253,14.261-41.422,33.306c-10.957-13.387-27.606-21.935-46.255-21.935c-23.544,0-43.9,13.624-53.635,33.414v60.646
				H500.066z"/>
			<path style="fill:#82BCE7;" d="M500.066,354.366V239.823c-20.995,10.13-36.122,30.498-38.888,54.634
				c-8.313-10.461-21.136-17.176-35.535-17.176c-14.561,0-27.51,6.867-35.813,17.529c-7.883-16.617-24.809-28.111-44.424-28.111
				c-0.035,0-0.069,0.003-0.104,0.003c0.062-0.97,0.104-1.945,0.104-2.93c0-25.061-20.315-45.376-45.376-45.376
				c-24.737,0-44.836,19.797-45.352,44.41c-12.727-14.213-31.21-23.164-51.79-23.164c-26.979,0-50.351,15.382-61.87,37.845
				c-6.071-5.626-14.193-9.07-23.123-9.07c-7.873,0-15.115,2.681-20.881,7.169c-7.359-15.126-22.872-25.553-40.824-25.553
				c-8.882,0-17.16,2.561-24.157,6.972C29.405,239.436,16.705,225.168,0,220.247v134.119H500.066z"/>
			<path style="fill:#8EC2E9;" d="M500.066,427.336V314.784c-1.98-0.371-4.02-0.573-6.108-0.573
				c-16.039,0-29.401,11.438-32.388,26.601c-6.017-6.348-14.522-10.314-23.959-10.314c-6.658,0-12.85,1.977-18.035,5.367
				c-5.15-22.24-25.07-38.822-48.876-38.822c-16.69,0-31.467,8.154-40.591,20.688c-5.502-18.577-22.687-32.134-43.049-32.134
				c-24.286,0-44.055,19.284-44.862,43.373c-5.448-3.967-12.152-6.313-19.408-6.313c-12.794,0-23.88,7.282-29.361,17.923
				c-9.206-10.955-23.002-17.923-38.431-17.923c-6.349,0-12.417,1.191-18.008,3.342c0.543-2.376,0.84-4.846,0.84-7.387
				c0-18.234-14.782-33.016-33.016-33.016c-13.907,0-25.798,8.603-30.661,20.774c-9.119-12.582-23.925-20.774-40.652-20.774
				c-12.877,0-24.617,4.855-33.501,12.828v128.912H500.066z"/>
			<path style="fill:#9DCBEC;" d="M500.066,480.424V368.177c-21.229,2.52-39.646,14.198-51.199,30.973
				c-6.134-3.122-13.07-4.893-20.424-4.893c-17.083,0-31.945,9.498-39.6,23.501c-5.57-5.632-13.299-9.125-21.847-9.125
				c-3.584,0-7.022,0.62-10.221,1.748c0.869-3.495,1.337-7.147,1.337-10.911c0-24.91-20.194-45.103-45.103-45.103
				c-20.267,0-37.41,13.368-43.098,31.768c-5.359-4.553-12.296-7.305-19.878-7.305c-12.16,0-22.669,7.065-27.65,17.313
				c-8.256-10.535-21.088-17.313-35.511-17.313c-23.46,0-42.73,17.913-44.894,40.806c-13.321-15.608-33.123-25.517-55.251-25.517
				c-15.898,0-30.593,5.123-42.553,13.788C39.947,387.382,21.776,371.949,0,371.949v108.475H500.066z"/>
			<path style="fill:#A6CFEE;" d="M500.066,500.066V378.655c-12.334,6.393-20.767,19.266-20.767,34.118
				c0,1.914,0.145,3.794,0.415,5.633c-6.728-3.591-14.409-5.633-22.568-5.633c-23.305,0-42.725,16.609-47.084,38.635
				c-6.958-6.999-16.593-11.334-27.242-11.334c-12.682,0-23.925,6.149-30.921,15.624c-4.828-32.443-32.796-57.333-66.582-57.333
				c-31.863,0-58.538,22.142-65.523,51.874c-10.976-14.504-28.373-23.88-47.965-23.88c-27.172,0-50.123,18.03-57.569,42.776
				c-6.892-10.294-18.624-17.074-31.942-17.074c-6.252,0-12.15,1.503-17.367,4.153c-7.232-25.086-30.344-43.442-57.758-43.442
				c-2.436,0-4.833,0.162-7.193,0.443v86.85H500.066z"/>
		</g>
	</g>
</g>
<g id="OBJECTS">
	<rect x="84.522" y="366.328" style="fill:none;" width="330.956" height="65.621"/>
	<text transform="matrix(1 0 0 1 90.1219 373.7473)"><tspan x="0" y="0" style="fill:#FFFFFF; font-family:'Montserrat-MediumItalic'; font-size:10px; letter-spacing:1;">Lorem ipsum dolor sit amet, consectetuer adipiscing </tspan><tspan x="6.04" y="13" style="fill:#FFFFFF; font-family:'Montserrat-MediumItalic'; font-size:10px; letter-spacing:1;">elit, sed diam nonummy nibh euismod tincidunt ut </tspan><tspan x="23.605" y="26" style="fill:#FFFFFF; font-family:'Montserrat-MediumItalic'; font-size:10px; letter-spacing:1;">laoreet dolore magna aliquam erat volutpat.</tspan></text>
	<g>
		<g>
			<path style="fill:#B5D1DB;" d="M217.389,209.692l12.129,37.1c0.862,2.636,4.108,3.578,6.247,1.812l36.224-29.903
				c0,0-38.493-15.015-38.493-14.196C233.496,205.324,217.389,209.692,217.389,209.692z"/>
			<path style="fill:#FFFFFF;" d="M312.963,138.388c-23.656,9.357-100.013,40.646-128.913,52.502
				c-3.816,1.565-3.587,7.039,0.342,8.291l32.997,10.511l12.091,36.983c0.486,1.487,1.714,2.446,3.084,2.704
				c1.112,0.209,2.753-29.949,2.753-29.949s34.688,25.725,51.142,37.875c4.054,2.993,9.842,0.742,10.802-4.204
				c4.901-25.261,17.157-88.424,21.347-110.018C319.238,139.835,316.038,137.172,312.963,138.388z"/>
			<path style="fill:#D6E2EA;" d="M232.564,249.378c1.112,0.209,2.752-29.949,2.752-29.949l56.988-53.529
				c0.385-0.362-0.075-0.972-0.529-0.701l-74.387,44.493l12.091,36.983C229.966,248.162,231.194,249.121,232.564,249.378z"/>
		</g>
		<path style="fill:none;stroke:#FFFFFF;stroke-width:2;stroke-miterlimit:10;stroke-dasharray:5;" d="M35.108,322
			c39.142-0.12,91.174-22.192,101.618-64.574c4.215-17.103,0.468-35.429-13.088-47.912c-17.131-15.775-35.94-1.36-31.312,20.657
			c7.603,36.169,51.777,62.952,85.352,63.331c19.405,0.219,37.611-9.086,44.587-28.101"/>
	</g>
</g>
<g id="DESIGNED_BY_FREEPIK_1_">
	<g>
		<g id="XMLID_5605_">
			<g id="XMLID_5624_">
				<path id="XMLID_5632_" style="fill:#F9FBFC;" d="M260.104,465.465c-0.432,0.443-0.803,0.931-1.108,1.453l-0.465-0.241
					c-0.067-0.298-0.349-0.503-0.659-0.466c-0.331,0.039-0.568,0.339-0.529,0.67c0.039,0.331,0.339,0.568,0.67,0.529
					c0.066-0.008,0.127-0.026,0.184-0.052l0.451,0.234c-0.251,0.554-0.433,1.139-0.539,1.744l0.747,0.132
					c0.23-1.306,0.85-2.507,1.792-3.473L260.104,465.465z"/>
				<path id="XMLID_5631_" style="fill:#F9FBFC;" d="M265.592,463.163c-0.171,0-0.341,0.006-0.51,0.017l-0.074-0.626
					c0.188-0.149,0.296-0.389,0.266-0.645c-0.046-0.393-0.402-0.674-0.795-0.628c-0.393,0.046-0.674,0.402-0.628,0.795
					c0.03,0.254,0.189,0.461,0.404,0.564l0.074,0.624c-0.714,0.116-1.403,0.332-2.06,0.646l0.327,0.684
					c0.934-0.447,1.942-0.673,2.995-0.673c0.496,0,0.993,0.053,1.475,0.158l0.161-0.741
					C266.692,463.222,266.142,463.163,265.592,463.163z"/>
				<path id="XMLID_5630_" style="fill:#F9FBFC;" d="M272.194,465.711c0.331-0.04,0.566-0.341,0.526-0.672
					c-0.04-0.331-0.341-0.566-0.672-0.526c-0.309,0.038-0.535,0.304-0.53,0.609l-0.416,0.363c-0.418-0.43-0.889-0.813-1.408-1.139
					l-0.404,0.641c1.134,0.715,2.021,1.726,2.563,2.925l0.69-0.313c-0.251-0.554-0.567-1.072-0.942-1.545l0.402-0.351
					C272.065,465.716,272.129,465.719,272.194,465.711z"/>
				<path id="XMLID_5629_" style="fill:#F9FBFC;" d="M265.044,473.372c-0.386,0.023-0.775,0.035-1.157,0.035
					c-0.88,0-1.733-0.061-2.478-0.179c-0.39-0.062-0.846-0.155-1.27-0.292c1.046,1.861,3.069,3.125,5.388,3.125
					c2.855,0,5.262-1.916,5.95-4.504c-0.682,0.449-1.505,0.825-2.459,1.123C267.839,473.047,266.463,473.286,265.044,473.372z"/>
				<path id="XMLID_5625_" style="fill:#F9FBFC;" d="M265.592,464.68c-3.352,0-6.08,2.666-6.08,5.943
					c0,0.426,0.046,0.849,0.137,1.261c0.673,0.483,2.706,0.89,5.348,0.731c2.879-0.173,5.297-0.957,6.672-2.159
					c-0.006-0.195-0.021-0.39-0.045-0.582C271.244,466.913,268.65,464.68,265.592,464.68z M263.432,471.194
					c-1.02,0-1.85-0.83-1.85-1.85c0-1.02,0.83-1.85,1.85-1.85c1.02,0,1.85,0.83,1.85,1.85
					C265.282,470.365,264.452,471.194,263.432,471.194z M268.17,470.286c-0.75,0-1.36-0.61-1.36-1.36s0.61-1.361,1.36-1.361
					c0.75,0,1.361,0.61,1.361,1.361S268.92,470.286,268.17,470.286z"/>
			</g>
			<path id="XMLID_5622_" style="fill:#F9FBFC;" d="M281.595,466.547c-0.295-0.116-0.805-0.309-1.382-0.237
				c-0.551,0.069-0.844,0.341-0.844,1.007v0.866h2.228v1.717h-2.228v5.455h-1.932v-5.455h-1.34v-1.717h1.34v-0.888
				c0-1.68,0.896-2.783,2.568-2.783c0.643,0,1.157,0.122,1.59,0.308L281.595,466.547z"/>
			<path id="XMLID_5620_" style="fill:#F9FBFC;" d="M286.298,469.879c-0.177-0.03-0.358-0.046-0.526-0.046
				c-0.896,0-1.51,0.548-1.51,1.614v3.908h-1.932v-7.172h1.873v0.785c0.451-0.673,1.14-0.977,2.021-0.977
				c0.414,0,0.848,0.128,1.094,0.337L286.298,469.879z"/>
			<path id="XMLID_5617_" style="fill:#F9FBFC;" d="M293.965,471.757c0,0.222-0.015,0.489-0.037,0.651h-5.085
				c0.207,1.036,0.933,1.488,1.843,1.488c0.622,0,1.295-0.252,1.813-0.688l1.133,1.243c-0.814,0.748-1.85,1.088-3.057,1.088
				c-2.198,0-3.723-1.495-3.723-3.753c0-2.258,1.48-3.797,3.627-3.797C292.544,467.99,293.958,469.522,293.965,471.757z
				 M288.851,471.091h3.175c-0.177-0.918-0.733-1.436-1.562-1.436C289.554,469.655,289.021,470.203,288.851,471.091z"/>
			<path id="XMLID_5614_" style="fill:#F9FBFC;" d="M301.618,471.757c0,0.222-0.015,0.489-0.037,0.651h-5.085
				c0.207,1.036,0.933,1.488,1.843,1.488c0.622,0,1.295-0.252,1.814-0.688l1.132,1.243c-0.814,0.748-1.85,1.088-3.057,1.088
				c-2.198,0-3.723-1.495-3.723-3.753c0-2.258,1.48-3.797,3.627-3.797C300.197,467.99,301.611,469.522,301.618,471.757z
				 M296.504,471.091h3.175c-0.178-0.918-0.733-1.436-1.562-1.436C297.207,469.655,296.674,470.203,296.504,471.091z"/>
			<path id="XMLID_5611_" style="fill:#F9FBFC;" d="M309.964,471.764c0,2.154-1.495,3.775-3.471,3.775
				c-0.962,0-1.643-0.378-2.109-0.933v3.708h-1.924v-10.133h1.887v0.792c0.466-0.585,1.155-0.984,2.139-0.984
				C308.469,467.99,309.964,469.61,309.964,471.764z M304.287,471.764c0,1.132,0.748,1.976,1.843,1.976
				c1.14,0,1.85-0.881,1.85-1.976c0-1.095-0.71-1.976-1.85-1.976C305.035,469.788,304.287,470.632,304.287,471.764z"/>
			<path id="XMLID_5608_" style="fill:#F9FBFC;" d="M313.068,465.836c0,0.696-0.54,1.229-1.236,1.229
				c-0.696,0-1.229-0.533-1.229-1.229c0-0.696,0.533-1.243,1.229-1.243C312.527,464.592,313.068,465.14,313.068,465.836z
				 M312.809,475.354h-1.932v-7.172h1.932V475.354z"/>
			<path id="XMLID_5606_" style="fill:#F9FBFC;" d="M316.032,470.736l2.701-2.554h2.368l-3.479,3.375l3.501,3.797h-2.376
				l-2.716-2.901v2.901H314.1v-10.658h1.932V470.736z"/>
		</g>
		<g>
			<path style="fill:#F9FBFC;" d="M184.412,475.289v-1.055c-0.527,0.718-1.391,1.23-2.387,1.23c-1.846,0-3.149-1.406-3.149-3.706
				c0-2.256,1.289-3.721,3.149-3.721c0.952,0,1.816,0.469,2.387,1.245v-3.765h1.099v9.77H184.412z M184.412,473.37v-3.208
				c-0.395-0.615-1.245-1.143-2.124-1.143c-1.421,0-2.27,1.172-2.27,2.739c0,1.567,0.85,2.724,2.27,2.724
				C183.168,474.483,184.017,473.986,184.412,473.37z"/>
			<path style="fill:#F9FBFC;" d="M186.932,471.744c0-2.051,1.465-3.706,3.486-3.706c2.139,0,3.398,1.67,3.398,3.794v0.279h-5.727
				c0.088,1.333,1.025,2.446,2.549,2.446c0.805,0,1.626-0.322,2.182-0.894l0.527,0.718c-0.703,0.703-1.655,1.084-2.812,1.084
				C188.44,475.465,186.932,473.956,186.932,471.744z M190.403,468.947c-1.509,0-2.256,1.274-2.314,2.358h4.643
				C192.718,470.25,192.015,468.947,190.403,468.947z"/>
			<path style="fill:#F9FBFC;" d="M194.607,474.351l0.571-0.791c0.469,0.542,1.362,1.011,2.329,1.011c1.084,0,1.67-0.513,1.67-1.216
				c0-1.714-4.38-0.659-4.38-3.281c0-1.098,0.952-2.036,2.636-2.036c1.201,0,2.051,0.454,2.622,1.026l-0.513,0.762
				c-0.424-0.513-1.201-0.894-2.109-0.894c-0.967,0-1.567,0.483-1.567,1.113c0,1.552,4.38,0.527,4.38,3.281
				c0,1.187-0.952,2.138-2.783,2.138C196.306,475.465,195.325,475.113,194.607,474.351z"/>
			<path style="fill:#F9FBFC;" d="M201.477,466.471c0-0.41,0.337-0.747,0.732-0.747c0.41,0,0.747,0.337,0.747,0.747
				c0,0.41-0.337,0.732-0.747,0.732C201.814,467.203,201.477,466.881,201.477,466.471z M201.667,475.289v-7.075h1.099v7.075H201.667
				z"/>
			<path style="fill:#F9FBFC;" d="M204.582,477.105l0.556-0.82c0.586,0.703,1.289,0.967,2.3,0.967c1.172,0,2.27-0.571,2.27-2.124
				v-1.011c-0.513,0.718-1.377,1.26-2.373,1.26c-1.845,0-3.149-1.377-3.149-3.662c0-2.27,1.289-3.677,3.149-3.677
				c0.952,0,1.802,0.469,2.373,1.245v-1.069h1.098v6.87c0,2.344-1.641,3.076-3.369,3.076
				C206.237,478.16,205.417,477.926,204.582,477.105z M209.709,473.253v-3.091c-0.381-0.615-1.23-1.143-2.109-1.143
				c-1.421,0-2.27,1.128-2.27,2.695c0,1.553,0.849,2.695,2.27,2.695C208.478,474.41,209.328,473.868,209.709,473.253z"/>
			<path style="fill:#F9FBFC;" d="M217.413,475.289v-4.629c0-1.245-0.63-1.641-1.582-1.641c-0.865,0-1.685,0.527-2.095,1.099v5.17
				h-1.099v-7.075h1.099v1.025c0.498-0.586,1.464-1.201,2.519-1.201c1.48,0,2.256,0.747,2.256,2.285v4.966H217.413z"/>
			<path style="fill:#F9FBFC;" d="M219.932,471.744c0-2.051,1.465-3.706,3.486-3.706c2.139,0,3.398,1.67,3.398,3.794v0.279h-5.727
				c0.088,1.333,1.025,2.446,2.549,2.446c0.806,0,1.626-0.322,2.183-0.894l0.527,0.718c-0.703,0.703-1.655,1.084-2.812,1.084
				C221.441,475.465,219.932,473.956,219.932,471.744z M223.404,468.947c-1.509,0-2.256,1.274-2.314,2.358h4.643
				C225.718,470.25,225.015,468.947,223.404,468.947z"/>
			<path style="fill:#F9FBFC;" d="M233.35,475.289v-1.055c-0.527,0.718-1.392,1.23-2.388,1.23c-1.846,0-3.149-1.406-3.149-3.706
				c0-2.256,1.289-3.721,3.149-3.721c0.952,0,1.817,0.469,2.388,1.245v-3.765h1.098v9.77H233.35z M233.35,473.37v-3.208
				c-0.396-0.615-1.245-1.143-2.124-1.143c-1.421,0-2.27,1.172-2.27,2.739c0,1.567,0.849,2.724,2.27,2.724
				C232.105,474.483,232.954,473.986,233.35,473.37z"/>
			<path style="fill:#F9FBFC;" d="M239.692,475.289v-9.77h1.098v3.765c0.572-0.776,1.421-1.245,2.388-1.245
				c1.845,0,3.149,1.465,3.149,3.721c0,2.299-1.304,3.706-3.149,3.706c-0.996,0-1.86-0.513-2.388-1.23v1.055H239.692z
				 M242.9,474.483c1.436,0,2.285-1.157,2.285-2.724c0-1.568-0.85-2.739-2.285-2.739c-0.864,0-1.728,0.527-2.109,1.143v3.208
				C241.171,473.986,242.036,474.483,242.9,474.483z"/>
			<path style="fill:#F9FBFC;" d="M247.528,477.061c0.161,0.073,0.425,0.117,0.601,0.117c0.483,0,0.805-0.161,1.055-0.747
				l0.469-1.069l-2.959-7.148h1.187l2.358,5.8l2.344-5.8h1.201l-3.545,8.51c-0.425,1.025-1.143,1.421-2.08,1.435
				c-0.234,0-0.601-0.044-0.805-0.103L247.528,477.061z"/>
		</g>
	</g>
</g>
</svg>
